# Blender 4.1.0
# www.blender.org
mtllib tracker_bar_paper.mtl
o plane
v 0.812500 0.437500 0.181250
v 0.812500 0.500000 0.181250
v 0.187500 0.500000 0.181250
v 0.187500 0.437500 0.181250
v 0.812500 0.893750 0.412500
v 0.187500 0.893750 0.412500
v 0.187500 0.046875 0.346875
v 0.812500 0.046875 0.346875
vn -0.0000 -0.0000 -1.0000
vn -0.0000 0.5064 -0.8623
vn -0.0000 -0.3904 -0.9207
vt 0.812500 0.437500
vt 0.187500 0.437500
vt 0.187500 0.500000
vt 0.812500 0.500000
vt 0.187500 0.956638
vt 0.812500 0.956638
vt 0.812500 0.013213
vt 0.187500 0.013213
s 0
usemtl m_0
f 1/1/1 4/2/1 3/3/1 2/4/1
f 2/4/2 3/3/2 6/5/2 5/6/2
f 4/7/3 1/8/3 8/2/3 7/1/3
